<?xml version="1.0" encoding="utf-8"?>
<!-- Generator: Adobe Illustrator 17.0.0, SVG Export Plug-In . SVG Version: 6.00 Build 0)  -->
<!DOCTYPE svg PUBLIC "-//W3C//DTD SVG 1.1//EN" "http://www.w3.org/Graphics/SVG/1.1/DTD/svg11.dtd">
<svg version="1.1" id="Layer_1" xmlns="http://www.w3.org/2000/svg" xmlns:xlink="http://www.w3.org/1999/xlink" x="0px" y="0px"
	 width="60px" height="60px" viewBox="0 0 60 60" enable-background="new 0 0 60 60" xml:space="preserve">
<pattern  x="10" y="10" width="171.613" height="171.613" patternUnits="userSpaceOnUse" id="Unnamed_Pattern_94" viewBox="0 -171.613 171.613 171.613" overflow="visible">
	<g>
		<polygon fill="none" points="0,-171.613 171.613,-171.613 171.613,0 0,0 		"/>
		<polygon fill="#39215A" points="171.613,-171.613 0,-171.613 0,0 171.613,0 		"/>
	</g>
</pattern>
<g>
	<defs>
		<rect id="SVGID_1_" x="9.46" y="12.238" width="59.862" height="47.447"/>
	</defs>
	<clipPath id="SVGID_2_">
		<use xlink:href="#SVGID_1_"  overflow="visible"/>
	</clipPath>
	<g clip-path="url(#SVGID_2_)">
		<defs>
			<rect id="SVGID_3_" x="-13.507" y="-622.847" width="922.289" height="691.717"/>
		</defs>
		<clipPath id="SVGID_4_">
			<use xlink:href="#SVGID_3_"  overflow="visible"/>
		</clipPath>
		<g clip-path="url(#SVGID_4_)">
			<defs>
				<rect id="SVGID_5_" x="-13.507" y="-622.847" width="922.289" height="691.717"/>
			</defs>
			<clipPath id="SVGID_6_">
				<use xlink:href="#SVGID_5_"  overflow="visible"/>
			</clipPath>
		</g>
		<g clip-path="url(#SVGID_4_)">
			<defs>
				<rect id="SVGID_11_" x="-13.507" y="-622.847" width="922.289" height="691.717"/>
			</defs>
			<clipPath id="SVGID_8_">
				<use xlink:href="#SVGID_11_"  overflow="visible"/>
			</clipPath>
		</g>
		<g clip-path="url(#SVGID_4_)">
			<defs>
				<rect id="SVGID_17_" x="-13.507" y="-622.847" width="922.289" height="691.717"/>
			</defs>
			<clipPath id="SVGID_10_">
				<use xlink:href="#SVGID_17_"  overflow="visible"/>
			</clipPath>
		</g>
		<g clip-path="url(#SVGID_4_)">
			<defs>
				<rect id="SVGID_40_" x="-13.507" y="-622.847" width="922.289" height="691.717"/>
			</defs>
			<clipPath id="SVGID_12_">
				<use xlink:href="#SVGID_40_"  overflow="visible"/>
			</clipPath>
		</g>
		<g clip-path="url(#SVGID_4_)">
			<defs>
				<rect id="SVGID_58_" x="-13.507" y="-622.847" width="922.289" height="691.717"/>
			</defs>
			<clipPath id="SVGID_14_">
				<use xlink:href="#SVGID_58_"  overflow="visible"/>
			</clipPath>
		</g>
		<g clip-path="url(#SVGID_4_)">
			<defs>
				<rect id="SVGID_84_" x="-13.507" y="-622.847" width="922.289" height="691.717"/>
			</defs>
			<clipPath id="SVGID_15_">
				<use xlink:href="#SVGID_84_"  overflow="visible"/>
			</clipPath>
		</g>
		<g clip-path="url(#SVGID_4_)">
			<defs>
				<rect id="SVGID_97_" x="-13.507" y="-622.847" width="922.289" height="691.717"/>
			</defs>
			<clipPath id="SVGID_16_">
				<use xlink:href="#SVGID_97_"  overflow="visible"/>
			</clipPath>
			<g opacity="0.5" clip-path="url(#SVGID_16_)">
				<g>
					<defs>
						<rect id="SVGID_106_" x="23.301" y="24.285" width="35.699" height="34.151"/>
					</defs>
					<clipPath id="SVGID_18_">
						<use xlink:href="#SVGID_106_"  overflow="visible"/>
					</clipPath>
					<pattern  id="SVGID_19_" xlink:href="#Unnamed_Pattern_94" patternTransform="matrix(1 0 0 -1 -6480 -2641.2266)">
					</pattern>
					<path clip-path="url(#SVGID_18_)" fill="url(#SVGID_19_)" d="M58.225,24.285c0.052,0.026,0.103,0.054,0.155,0.078
						c0.431,0.202,0.663,0.599,0.614,1.054c-0.046,0.424-0.394,0.8-0.849,0.879c-1.53,0.265-3.06,0.526-4.592,0.776
						c-0.22,0.036-0.337,0.116-0.421,0.331c-2.498,6.41-5.002,12.817-7.511,19.222c-0.083,0.212-0.053,0.322,0.13,0.465
						c0.868,0.674,1.752,1.334,2.571,2.065c0.915,0.816,1.398,1.857,1.146,3.106c-0.172,0.849-0.739,1.447-1.469,1.891
						c-0.131,0.08-0.273,0.142-0.399,0.207c0.281,0.176,0.583,0.313,0.82,0.524c1.169,1.046,0.746,2.96-0.748,3.446
						c-0.093,0.031-0.183,0.07-0.275,0.105h-0.714c-0.073-0.029-0.144-0.062-0.217-0.086c-0.772-0.251-1.27-0.776-1.426-1.564
						c-0.156-0.788,0.097-1.466,0.726-1.987c0.054-0.045,0.123-0.072,0.218-0.126H28.789c0.111,0.104,0.161,0.15,0.211,0.197
						c0.862,0.804,0.936,2.085,0.105,2.913c-0.293,0.293-0.731,0.44-1.104,0.653h-0.774c-0.078-0.037-0.153-0.082-0.233-0.109
						c-1.366-0.456-1.854-2.095-0.953-3.216c0.114-0.141,0.25-0.265,0.41-0.432c-0.282,0-0.517,0-0.752,0
						c-0.238-0.001-0.477,0.008-0.714-0.003c-0.487-0.023-0.854-0.318-0.976-0.771c-0.111-0.409,0.044-0.872,0.427-1.077
						c0.216-0.115,0.488-0.172,0.734-0.173c6.971-0.029,13.942-0.047,20.912-0.07c0.228-0.001,0.457-0.007,0.681-0.037
						c0.544-0.074,0.799-0.45,0.709-0.995c-0.076-0.459-0.334-0.797-0.686-1.074c-1.121-0.883-2.243-1.766-3.37-2.642
						c-0.103-0.081-0.243-0.148-0.371-0.159c-1.767-0.149-3.535-0.288-5.303-0.426c-1.877-0.146-3.754-0.288-5.63-0.435
						c-1.956-0.154-3.911-0.311-5.866-0.467c-0.227-0.018-0.455-0.032-0.681-0.061c-0.574-0.071-0.865-0.504-0.954-1.314
						c-0.154-1.397-0.33-2.792-0.499-4.188c-0.19-1.573-0.378-3.145-0.573-4.717c-0.071-0.578-0.159-1.153-0.239-1.73v-0.595
						c0.231-0.565,0.646-0.778,1.257-0.783c1.774-0.017,3.547-0.08,5.321-0.125c3.637-0.092,7.273-0.187,10.91-0.277
						c2.656-0.066,5.311-0.13,7.967-0.186c0.215-0.005,0.306-0.085,0.38-0.278c0.785-2.028,1.584-4.051,2.365-6.081
						c0.183-0.476,0.498-0.739,0.994-0.82c1.093-0.179,2.185-0.363,3.276-0.553c0.641-0.111,1.279-0.237,1.919-0.357H58.225z
						 M44.283,34.088h-3.391v3.456h3.391V34.088z M36.759,37.54h3.367v-3.357h-3.367V37.54z M40.885,45.509
						c0.896,0.086,1.772,0.173,2.648,0.251c0.051,0.005,0.142-0.047,0.157-0.091c0.236-0.725,0.691-1.384,0.616-2.202
						c-0.038-0.418-0.007-0.843-0.007-1.26h-3.414V45.509z M36.004,34.288h-3.396v3.249h3.396V34.288z M40.891,41.456h3.385v-3.167
						h-3.385V41.456z M36.004,38.292h-3.4v3.172h3.4V38.292z M28.487,41.461h3.369v-3.172h-3.369V41.461z M40.131,38.294h-3.375
						v3.172h3.375V38.294z M31.848,34.4h-3.364v3.147h3.364V34.4z M40.136,42.21h-3.375v2.989c1.135,0.09,2.25,0.178,3.375,0.267
						V42.21z M32.611,42.202v2.667c1.141,0.088,2.26,0.175,3.389,0.263v-2.93H32.611z M45.032,33.976v3.584
						c0.531,0,1.043-0.012,1.556,0.006c0.216,0.007,0.309-0.07,0.384-0.266c0.389-1.024,0.793-2.041,1.19-3.062
						c0.037-0.095,0.061-0.194,0.082-0.261H45.032z M28.478,44.537c1.13,0.09,2.249,0.18,3.376,0.27v-2.599h-3.376V44.537z
						 M27.724,34.499h-2.863c0.127,1.05,0.248,2.047,0.368,3.038h2.494V34.499z M25.319,38.285c0.131,1.08,0.258,2.125,0.386,3.181
						h2.011v-3.181H25.319z M27.719,42.209h-1.924c0.087,0.715,0.171,1.411,0.259,2.136c0.556,0.043,1.103,0.086,1.665,0.129V42.209
						z M26.444,56.392c0.001,0.665,0.521,1.188,1.182,1.191c0.651,0.004,1.196-0.53,1.205-1.182c0.01-0.664-0.533-1.201-1.211-1.197
						C26.95,55.208,26.443,55.72,26.444,56.392 M48.236,56.402c0.005-0.67-0.502-1.189-1.17-1.198
						c-0.68-0.009-1.219,0.515-1.217,1.186c0.001,0.654,0.534,1.187,1.191,1.192C47.697,57.588,48.232,57.06,48.236,56.402
						 M45.031,38.286v3.172c0.239,0.081,0.331-0.027,0.406-0.227c0.262-0.703,0.543-1.4,0.815-2.099
						c0.107-0.274,0.209-0.548,0.323-0.846H45.031z"/>
					<pattern  id="SVGID_20_" xlink:href="#Unnamed_Pattern_94" patternTransform="matrix(1 0 0 -1 -6480 -2641.2266)">
					</pattern>
					<path clip-path="url(#SVGID_18_)" fill="url(#SVGID_20_)" d="M26.986,56.402c0.005-0.356,0.286-0.637,0.641-0.64
						c0.356-0.003,0.669,0.308,0.662,0.658c-0.006,0.34-0.309,0.638-0.651,0.642C27.278,57.067,26.981,56.767,26.986,56.402"/>
					<pattern  id="SVGID_21_" xlink:href="#Unnamed_Pattern_94" patternTransform="matrix(1 0 0 -1 -6480 -2641.2266)">
					</pattern>
					<path clip-path="url(#SVGID_18_)" fill="url(#SVGID_21_)" d="M47.694,56.41c0.001,0.351-0.282,0.643-0.633,0.652
						c-0.351,0.01-0.669-0.3-0.669-0.651c0-0.346,0.29-0.642,0.638-0.649C47.396,55.754,47.693,56.044,47.694,56.41"/>
				</g>
			</g>
		</g>
		<g clip-path="url(#SVGID_4_)">
			<defs>
				<rect id="SVGID_120_" x="-13.507" y="-622.847" width="922.289" height="691.717"/>
			</defs>
			<clipPath id="SVGID_22_">
				<use xlink:href="#SVGID_120_"  overflow="visible"/>
			</clipPath>
		</g>
		<g clip-path="url(#SVGID_4_)">
			<defs>
				<rect id="SVGID_125_" x="-13.507" y="-622.847" width="922.289" height="691.717"/>
			</defs>
			<clipPath id="SVGID_23_">
				<use xlink:href="#SVGID_125_"  overflow="visible"/>
			</clipPath>
		</g>
		<g clip-path="url(#SVGID_4_)">
			<defs>
				<rect id="SVGID_127_" x="-13.507" y="-622.847" width="922.289" height="691.717"/>
			</defs>
			<clipPath id="SVGID_24_">
				<use xlink:href="#SVGID_127_"  overflow="visible"/>
			</clipPath>
		</g>
		<g clip-path="url(#SVGID_4_)">
			<defs>
				<rect id="SVGID_131_" x="-13.507" y="-622.847" width="922.289" height="691.717"/>
			</defs>
			<clipPath id="SVGID_25_">
				<use xlink:href="#SVGID_131_"  overflow="visible"/>
			</clipPath>
			<defs>
				<filter id="Adobe_OpacityMaskFilter" filterUnits="userSpaceOnUse" x="-12.792" y="17.615" width="922.289" height="50.302">
					<feColorMatrix  type="matrix" values="1 0 0 0 0  0 1 0 0 0  0 0 1 0 0  0 0 0 1 0"/>
				</filter>
			</defs>
			<mask maskUnits="userSpaceOnUse" x="-12.792" y="17.615" width="922.289" height="50.302" id="SVGID_26_">
				<g filter="url(#Adobe_OpacityMaskFilter)">
					
						<linearGradient id="SVGID_27_" gradientUnits="userSpaceOnUse" x1="-768.5286" y1="631.5389" x2="-767.9525" y2="631.5389" gradientTransform="matrix(1600.9998 0 0 -1600.9998 1230400.5 1010816.5625)">
						<stop  offset="0" style="stop-color:#FFFFFF"/>
						<stop  offset="0.2339" style="stop-color:#FFFFFF"/>
						<stop  offset="0.6779" style="stop-color:#FFFFFF"/>
						<stop  offset="0.7177" style="stop-color:#E7E7E7"/>
						<stop  offset="0.8009" style="stop-color:#BBBBBB"/>
						<stop  offset="0.8753" style="stop-color:#9A9A9A"/>
						<stop  offset="0.9375" style="stop-color:#878787"/>
						<stop  offset="0.98" style="stop-color:#808080"/>
						<stop  offset="1" style="stop-color:#808080"/>
					</linearGradient>
					<rect x="-13.507" y="-622.847" clip-path="url(#SVGID_25_)" fill="url(#SVGID_27_)" width="922.289" height="691.717"/>
				</g>
			</mask>
			
				<linearGradient id="SVGID_28_" gradientUnits="userSpaceOnUse" x1="-768.5281" y1="631.3391" x2="-767.952" y2="631.3391" gradientTransform="matrix(1601 0 0 -1601 1230400.75 1010816.6875)">
				<stop  offset="0" style="stop-color:#4C2A62"/>
				<stop  offset="0.0626" style="stop-color:#6A3567"/>
				<stop  offset="0.1796" style="stop-color:#A14C6F"/>
				<stop  offset="0.2339" style="stop-color:#BA5772"/>
				<stop  offset="0.2916" style="stop-color:#C46979"/>
				<stop  offset="0.4095" style="stop-color:#D88885"/>
				<stop  offset="0.5172" style="stop-color:#E8A08F"/>
				<stop  offset="0.6102" style="stop-color:#F4B196"/>
				<stop  offset="0.6779" style="stop-color:#FAB798"/>
				<stop  offset="0.98" style="stop-color:#FAB798"/>
				<stop  offset="1" style="stop-color:#FAB798"/>
			</linearGradient>
			<polygon clip-path="url(#SVGID_25_)" mask="url(#SVGID_26_)" fill="url(#SVGID_28_)" points="909.497,67.917 909.497,67.917 
				-12.792,67.917 -12.792,17.615 909.497,17.615 909.497,67.917 909.497,67.917 909.497,67.917 909.497,17.615 -12.792,17.615 
				-12.792,67.917 909.497,67.917 			"/>
		</g>
		<g clip-path="url(#SVGID_4_)">
			<defs>
				<rect id="SVGID_142_" x="-13.507" y="-622.847" width="922.289" height="691.717"/>
			</defs>
			<clipPath id="SVGID_29_">
				<use xlink:href="#SVGID_142_"  overflow="visible"/>
			</clipPath>
		</g>
		<g clip-path="url(#SVGID_4_)">
			<defs>
				<rect id="SVGID_151_" x="-13.507" y="-622.847" width="922.289" height="691.717"/>
			</defs>
			<clipPath id="SVGID_30_">
				<use xlink:href="#SVGID_151_"  overflow="visible"/>
			</clipPath>
		</g>
		<g clip-path="url(#SVGID_4_)">
			<defs>
				<rect id="SVGID_165_" x="-13.507" y="-622.847" width="922.289" height="691.717"/>
			</defs>
			<clipPath id="SVGID_31_">
				<use xlink:href="#SVGID_165_"  overflow="visible"/>
			</clipPath>
		</g>
	</g>
</g>
</svg>
