<?xml version="1.0" encoding="utf-8"?>
<!-- Generator: Adobe Illustrator 17.0.0, SVG Export Plug-In . SVG Version: 6.00 Build 0)  -->
<!DOCTYPE svg PUBLIC "-//W3C//DTD SVG 1.1//EN" "http://www.w3.org/Graphics/SVG/1.1/DTD/svg11.dtd">
<svg version="1.1" id="Layer_1" xmlns="http://www.w3.org/2000/svg" xmlns:xlink="http://www.w3.org/1999/xlink" x="0px" y="0px"
	 width="200px" height="100px" viewBox="0 0 200 100" enable-background="new 0 0 200 100" xml:space="preserve">
<pattern  width="171.613" height="171.613" patternUnits="userSpaceOnUse" id="New_Pattern_Swatch_3" viewBox="0 -171.613 171.613 171.613" overflow="visible">
	<g>
		<polygon fill="none" points="0,0 171.613,0 171.613,-171.613 0,-171.613 		"/>
		<polygon fill="#38215A" points="171.613,0 0,0 0,-171.613 171.613,-171.613 		"/>
	</g>
</pattern>
<rect x="61.764" y="30" fill="none" width="131.851" height="32.347"/>
<text transform="matrix(1 0 0 1 61.7643 50.1378)" fill="none" stroke="url(#New_Pattern_Swatch_3)" stroke-miterlimit="10" font-family="'SlimJoe'" font-size="26.8511">POTATO</text>
<text transform="matrix(1 0 0 1 61.7663 71.3277)" fill="url(#New_Pattern_Swatch_3)" font-family="'HelveticaNeue-Thin'" font-size="21.1982">.com</text>
<g>
	<g>
		<path fill="url(#New_Pattern_Swatch_3)" d="M55.729,49.279c-0.13-1.143-0.249-2.225-0.377-3.304
			c-0.686-5.771-2.104-11.344-5.217-16.302c-3.952-6.295-9.222-10.784-17.013-11.499c-11.049-1.014-19.608,7.954-17.837,18.72
			c0.739,4.494,0.589,8.877-1.501,13.058c-0.478,0.957-0.794,2.01-1.073,3.048c-2.45,9.095,1.915,17.387,10.951,19.943
			c3.599,1.018,7.526,1.426,11.271,1.28c12.407-0.482,19.07-8.568,20.422-19.325c0.076-0.602,0.125-0.813,0.155-1.096
			c0.061-0.18,0.058-0.405,0.119-0.608c0.034-0.369,0.068-0.737,0.1-1.106C55.725,51.153,55.693,50.216,55.729,49.279z
			 M53.473,57.311c-2.167,9.382-8.856,14.88-18.577,15.39c-5.101,0.268-10.067-0.306-14.572-2.995
			c-6.039-3.605-8.403-11.286-5.62-17.551c0.039-0.109,0.08-0.217,0.124-0.324c0.045-0.146,0.092-0.291,0.145-0.433
			c0.022-0.101,0.043-0.201,0.069-0.304c0.242-0.98,0.594-1.925,0.977-2.858c0.351-0.854,0.728-1.709,1.064-2.577
			c0.175-0.738,0.452-1.462,0.504-2.238c0.021-1.029,0.118-2.065-0.001-3.09c-0.443-2.972-0.992-5.949-1.016-8.957
			c-0.015-1.878,0.668-3.619,1.795-4.992c0.32-0.512,0.696-0.99,1.121-1.415c0.226-0.226,0.467-0.436,0.717-0.632
			c1.886-2.249,4.375-3.7,7.569-4.436c6.835-1.575,12.615,0.938,17.159,5.427l4.375,5.348C53.311,38.181,55.65,47.885,53.473,57.311
			z"/>
		<g>
			<circle fill="url(#New_Pattern_Swatch_3)" cx="29.41" cy="38.885" r="5.577"/>
			<circle fill="url(#New_Pattern_Swatch_3)" cx="39.537" cy="38.612" r="4.533"/>
			<path fill="url(#New_Pattern_Swatch_3)" d="M20.808,34.59c0,0,2.345-6.393,10.48-4.889C31.287,29.701,22.312,21.992,20.808,34.59
				z"/>
			<path fill="url(#New_Pattern_Swatch_3)" d="M44.875,32.159c0,0-3.761-4.338-9.966-2.646
				C34.91,29.513,42.431,22.959,44.875,32.159z"/>
		</g>
	</g>
	<path fill="url(#New_Pattern_Swatch_3)" d="M23.114,52.282c0,0,15.417,9.848,21.609,0C44.723,52.282,38.131,66.412,23.114,52.282z"
		/>
</g>
</svg>
