<?xml version="1.0" encoding="utf-8"?>
<!-- Generator: Adobe Illustrator 17.0.0, SVG Export Plug-In . SVG Version: 6.00 Build 0)  -->
<!DOCTYPE svg PUBLIC "-//W3C//DTD SVG 1.1//EN" "http://www.w3.org/Graphics/SVG/1.1/DTD/svg11.dtd">
<svg version="1.1" id="Layer_1" xmlns="http://www.w3.org/2000/svg" xmlns:xlink="http://www.w3.org/1999/xlink" x="0px" y="0px"
	 width="200px" height="100px" viewBox="0 0 200 100" enable-background="new 0 0 200 100" xml:space="preserve">
<pattern  width="171.613" height="171.613" patternUnits="userSpaceOnUse" id="New_Pattern_Swatch_3" viewBox="0 -171.613 171.613 171.613" overflow="visible">
	<g>
		<polygon fill="none" points="0,0 171.613,0 171.613,-171.613 0,-171.613 		"/>
		<polygon fill="#38215A" points="171.613,0 0,0 0,-171.613 171.613,-171.613 		"/>
	</g>
</pattern>
<rect x="44.951" y="11.008" fill="none" width="108.919" height="26.721"/>
<text transform="matrix(1 0 0 1 44.9512 27.6431)" fill="none" stroke="url(#New_Pattern_Swatch_3)" stroke-miterlimit="10" font-family="'SlimJoe'" font-size="22.181">POTATO</text>
<text transform="matrix(1 0 0 1 44.9527 45.147)" fill="url(#New_Pattern_Swatch_3)" font-family="'HelveticaNeue-Thin'" font-size="17.5113">.com</text>
<g>
	<g>
		<path fill="url(#New_Pattern_Swatch_3)" d="M39.966,26.934c-0.107-0.944-0.205-1.838-0.311-2.73
			c-0.567-4.768-1.738-9.371-4.309-13.466c-3.265-5.2-7.618-8.908-14.054-9.499C12.164,0.4,5.093,7.808,6.556,16.702
			c0.611,3.712,0.487,7.333-1.24,10.787c-0.395,0.79-0.656,1.66-0.887,2.518c-2.024,7.513,1.582,14.363,9.046,16.475
			c2.973,0.841,6.217,1.178,9.311,1.058c10.249-0.398,15.753-7.078,16.87-15.964c0.063-0.498,0.103-0.672,0.128-0.905
			c0.05-0.149,0.048-0.335,0.098-0.502c0.028-0.304,0.057-0.609,0.083-0.914C39.963,28.482,39.936,27.707,39.966,26.934z
			 M38.102,33.568c-1.79,7.75-7.316,12.292-15.346,12.714c-4.214,0.221-8.316-0.252-12.037-2.474
			c-4.988-2.978-6.941-9.323-4.643-14.498c0.032-0.09,0.066-0.179,0.102-0.268c0.037-0.121,0.076-0.24,0.12-0.358
			c0.018-0.083,0.036-0.166,0.057-0.251c0.2-0.81,0.491-1.59,0.807-2.361c0.29-0.705,0.601-1.412,0.879-2.129
			c0.145-0.61,0.373-1.207,0.416-1.849c0.017-0.85,0.097-1.706-0.001-2.552c-0.366-2.455-0.819-4.914-0.839-7.399
			C7.604,10.592,8.168,9.154,9.1,8.02c0.265-0.423,0.575-0.818,0.926-1.169c0.187-0.187,0.386-0.36,0.593-0.522
			c1.558-1.858,3.614-3.056,6.252-3.664c5.646-1.301,10.421,0.775,14.175,4.483l3.614,4.418
			C37.969,17.766,39.9,25.782,38.102,33.568z"/>
		<g>
			<circle fill="url(#New_Pattern_Swatch_3)" cx="18.224" cy="18.347" r="4.607"/>
			<circle fill="url(#New_Pattern_Swatch_3)" cx="26.59" cy="18.121" r="3.745"/>
			<path fill="url(#New_Pattern_Swatch_3)" d="M11.118,14.799c0,0,1.937-5.281,8.657-4.038C19.775,10.76,12.361,4.392,11.118,14.799
				z"/>
			<path fill="url(#New_Pattern_Swatch_3)" d="M31,12.791c0,0-3.107-3.584-8.232-2.186C22.767,10.605,28.98,5.191,31,12.791z"/>
		</g>
	</g>
	<path fill="url(#New_Pattern_Swatch_3)" d="M13.023,29.414c0,0,12.735,8.135,17.85,0C30.874,29.414,25.428,41.086,13.023,29.414z"
		/>
</g>
</svg>
