<?xml version="1.0" encoding="utf-8"?>
<!-- Generator: Adobe Illustrator 17.0.0, SVG Export Plug-In . SVG Version: 6.00 Build 0)  -->
<!DOCTYPE svg PUBLIC "-//W3C//DTD SVG 1.1//EN" "http://www.w3.org/Graphics/SVG/1.1/DTD/svg11.dtd">
<svg version="1.1" id="Layer_1" xmlns="http://www.w3.org/2000/svg" xmlns:xlink="http://www.w3.org/1999/xlink" x="0px" y="0px"
	 width="1440px" height="100px" viewBox="0 0 1440 100" enable-background="new 0 0 1440 100" xml:space="preserve">
<pattern  x="620" width="171.613" height="171.613" patternUnits="userSpaceOnUse" id="New_Pattern_Swatch_3" viewBox="0 -171.613 171.613 171.613" overflow="visible">
	<g>
		<polygon fill="none" points="0,0 171.613,0 171.613,-171.613 0,-171.613 		"/>
		<polygon fill="#38215A" points="171.613,0 0,0 0,-171.613 171.613,-171.613 		"/>
	</g>
</pattern>
<rect x="689.262" y="39.443" fill="none" width="159.759" height="39.193"/>
<text transform="matrix(1 0 0 1 689.2623 63.8432)" fill="none" stroke="url(#New_Pattern_Swatch_3)" stroke-width="2" stroke-miterlimit="10" font-family="'SlimJoe'" font-size="32.5344">POTATO</text>
<text transform="matrix(1 0 0 1 689.2643 89.5165)" fill="url(#New_Pattern_Swatch_3)" font-family="'HelveticaNeue-Thin'" font-size="25.685">.com</text>
<g>
	<g>
		<path fill="url(#New_Pattern_Swatch_3)" d="M681.95,62.802c-0.157-1.384-0.301-2.696-0.457-4.004
			c-0.831-6.993-2.549-13.745-6.321-19.752c-4.789-7.627-11.174-13.066-20.614-13.933c-13.388-1.229-23.759,9.637-21.613,22.683
			c0.896,5.445,0.714,10.756-1.819,15.822c-0.579,1.159-0.962,2.435-1.301,3.693c-2.969,11.02,2.321,21.067,13.269,24.164
			c4.361,1.234,9.119,1.727,13.657,1.551c15.033-0.584,23.106-10.382,24.744-23.415c0.092-0.73,0.152-0.986,0.188-1.328
			c0.074-0.218,0.07-0.491,0.144-0.736c0.042-0.447,0.083-0.893,0.122-1.34C681.945,65.073,681.906,63.937,681.95,62.802z
			 M679.216,72.534c-2.625,11.367-10.731,18.03-22.51,18.648c-6.181,0.324-12.198-0.37-17.656-3.629
			c-7.317-4.369-10.181-13.675-6.81-21.266c0.047-0.132,0.097-0.263,0.15-0.393c0.054-0.177,0.112-0.352,0.176-0.525
			c0.027-0.122,0.053-0.243,0.083-0.368c0.294-1.187,0.72-2.332,1.184-3.463c0.425-1.035,0.882-2.07,1.289-3.123
			c0.212-0.894,0.547-1.771,0.61-2.711c0.026-1.247,0.143-2.502-0.001-3.744c-0.537-3.601-1.201-7.208-1.231-10.853
			c-0.018-2.275,0.81-4.385,2.175-6.049c0.388-0.621,0.843-1.199,1.359-1.715c0.274-0.274,0.566-0.528,0.869-0.766
			c2.285-2.725,5.302-4.483,9.17-5.375c8.282-1.908,15.285,1.137,20.791,6.576l5.3,6.48
			C679.02,49.355,681.853,61.113,679.216,72.534z"/>
		<g>
			<circle fill="url(#New_Pattern_Swatch_3)" cx="650.06" cy="50.208" r="6.758"/>
			<circle fill="url(#New_Pattern_Swatch_3)" cx="662.33" cy="49.877" r="5.493"/>
			<path fill="url(#New_Pattern_Swatch_3)" d="M639.637,45.003c0,0,2.841-7.746,12.698-5.924
				C652.335,39.08,641.459,29.739,639.637,45.003z"/>
			<path fill="url(#New_Pattern_Swatch_3)" d="M668.798,42.058c0,0-4.557-5.257-12.075-3.206
				C656.724,38.852,665.837,30.911,668.798,42.058z"/>
		</g>
	</g>
	<path fill="url(#New_Pattern_Swatch_3)" d="M642.431,66.44c0,0,18.68,11.933,26.183,0C668.613,66.44,660.626,83.561,642.431,66.44z
		"/>
</g>
</svg>
